<mxfile host="app.diagrams.net" modified="2024-05-14T16:31:45.777Z" agent="Mozilla/5.0 (Macintosh; Intel Mac OS X 10_15_7) AppleWebKit/537.36 (KHTML, like Gecko) Chrome/124.0.0.0 Safari/537.36" etag="8Axw9SRI9dLXDcViLj14" version="24.4.0" type="device" pages="2">
  <diagram name="Сторінка-1" id="iQwgXVYbb1-z4UfogPQc">
    <mxGraphModel dx="3932" dy="3147" grid="1" gridSize="10" guides="1" tooltips="1" connect="1" arrows="1" fold="1" page="1" pageScale="1" pageWidth="827" pageHeight="1169" math="0" shadow="0">
      <root>
        <mxCell id="0" />
        <mxCell id="1" parent="0" />
        <mxCell id="rnsp_3mBkwOscuIRbUeU-21" value="&lt;p style=&quot;margin:0px;margin-top:4px;text-align:center;&quot;&gt;&lt;b&gt;Engine&lt;/b&gt;&lt;/p&gt;&lt;hr size=&quot;1&quot; style=&quot;border-style:solid;&quot;&gt;&lt;p style=&quot;margin:0px;margin-left:4px;&quot;&gt;id: integer&lt;/p&gt;&lt;hr size=&quot;1&quot; style=&quot;border-style:solid;&quot;&gt;&lt;p style=&quot;margin:0px;margin-left:4px;&quot;&gt;&lt;br&gt;&lt;/p&gt;" style="verticalAlign=top;align=left;overflow=fill;html=1;whiteSpace=wrap;" parent="1" vertex="1">
          <mxGeometry x="190" y="-230" width="190" height="100" as="geometry" />
        </mxCell>
        <mxCell id="rnsp_3mBkwOscuIRbUeU-22" value="&lt;p style=&quot;margin:0px;margin-top:4px;text-align:center;&quot;&gt;&lt;b&gt;Body&lt;/b&gt;&lt;/p&gt;&lt;hr size=&quot;1&quot; style=&quot;border-style:solid;&quot;&gt;&lt;p style=&quot;margin:0px;margin-left:4px;&quot;&gt;id: integer&lt;/p&gt;&lt;hr size=&quot;1&quot; style=&quot;border-style:solid;&quot;&gt;&lt;p style=&quot;margin:0px;margin-left:4px;&quot;&gt;&lt;br&gt;&lt;/p&gt;" style="verticalAlign=top;align=left;overflow=fill;html=1;whiteSpace=wrap;" parent="1" vertex="1">
          <mxGeometry x="-60" y="-230" width="200" height="100" as="geometry" />
        </mxCell>
        <mxCell id="rnsp_3mBkwOscuIRbUeU-23" value="&lt;p style=&quot;margin:0px;margin-top:4px;text-align:center;&quot;&gt;&lt;b&gt;Accessor&lt;/b&gt;&lt;/p&gt;&lt;hr size=&quot;1&quot; style=&quot;border-style:solid;&quot;&gt;&lt;p style=&quot;margin:0px;margin-left:4px;&quot;&gt;id: integer&lt;/p&gt;&lt;hr size=&quot;1&quot; style=&quot;border-style:solid;&quot;&gt;&lt;p style=&quot;margin:0px;margin-left:4px;&quot;&gt;&lt;br&gt;&lt;/p&gt;" style="verticalAlign=top;align=left;overflow=fill;html=1;whiteSpace=wrap;" parent="1" vertex="1">
          <mxGeometry x="-322.5" y="-230" width="190" height="100" as="geometry" />
        </mxCell>
        <mxCell id="rnsp_3mBkwOscuIRbUeU-25" value="&lt;p style=&quot;margin:0px;margin-top:4px;text-align:center;&quot;&gt;&lt;b&gt;CarsStorage&lt;/b&gt;&lt;/p&gt;&lt;hr size=&quot;1&quot; style=&quot;border-style:solid;&quot;&gt;&amp;nbsp;- maxSize: integer&lt;br&gt;&lt;p style=&quot;margin:0px;margin-left:4px;&quot;&gt;- items: List&amp;lt;Car&amp;gt;&lt;/p&gt;&lt;p style=&quot;margin:0px;margin-left:4px;&quot;&gt;- controller: CarsRepositoryController&lt;/p&gt;&lt;p style=&quot;margin:0px;margin-left:4px;&quot;&gt;- supplier: ISuplier&lt;/p&gt;&lt;hr size=&quot;1&quot; style=&quot;border-style:solid;&quot;&gt;&lt;p style=&quot;margin:0px;margin-left:4px;&quot;&gt;+ isFull(): boolean&lt;/p&gt;&lt;p style=&quot;margin:0px;margin-left:4px;&quot;&gt;+ add(item: Car): void&lt;/p&gt;&lt;p style=&quot;margin:0px;margin-left:4px;&quot;&gt;+ get(): Car&lt;/p&gt;" style="verticalAlign=top;align=left;overflow=fill;html=1;whiteSpace=wrap;" parent="1" vertex="1">
          <mxGeometry x="-770" y="-1130" width="160" height="160" as="geometry" />
        </mxCell>
        <mxCell id="pGTX71lNuf2riV2tVMr1-4" value="&lt;p style=&quot;margin:0px;margin-top:4px;text-align:center;&quot;&gt;&lt;b&gt;Dealer (Спостерігач)&lt;/b&gt;&lt;/p&gt;&lt;hr size=&quot;1&quot; style=&quot;border-style:solid;&quot;&gt;&lt;p style=&quot;margin:0px;margin-left:4px;&quot;&gt;- carRepository: Repository&amp;lt;Car&amp;gt;&lt;/p&gt;&lt;hr size=&quot;1&quot; style=&quot;border-style:solid;&quot;&gt;&lt;p style=&quot;margin:0px;margin-left:4px;&quot;&gt;+ deliverCar(): Car&lt;/p&gt;" style="verticalAlign=top;align=left;overflow=fill;html=1;whiteSpace=wrap;" parent="1" vertex="1">
          <mxGeometry x="-1170" y="-810" width="200" height="150" as="geometry" />
        </mxCell>
        <mxCell id="KG3h8wtog52oOwl-IjPc-11" value="&lt;p style=&quot;margin:0px;margin-top:4px;text-align:center;&quot;&gt;&lt;i&gt;&amp;lt;&amp;lt;Interface&amp;gt;&amp;gt;&lt;/i&gt;&lt;br&gt;&lt;b&gt;IEngine&lt;/b&gt;&lt;/p&gt;&lt;hr size=&quot;1&quot; style=&quot;border-style:solid;&quot;&gt;&lt;p style=&quot;margin:0px;margin-left:4px;&quot;&gt;&lt;br&gt;&lt;/p&gt;&lt;hr size=&quot;1&quot; style=&quot;border-style:solid;&quot;&gt;&lt;p style=&quot;margin:0px;margin-left:4px;&quot;&gt;&lt;br&gt;&lt;/p&gt;" style="verticalAlign=top;align=left;overflow=fill;html=1;whiteSpace=wrap;" parent="1" vertex="1">
          <mxGeometry x="190" y="-420" width="190" height="140" as="geometry" />
        </mxCell>
        <mxCell id="KG3h8wtog52oOwl-IjPc-12" value="" style="endArrow=block;dashed=1;endFill=0;endSize=12;html=1;rounded=0;exitX=0.5;exitY=0;exitDx=0;exitDy=0;" parent="1" source="rnsp_3mBkwOscuIRbUeU-21" edge="1">
          <mxGeometry width="160" relative="1" as="geometry">
            <mxPoint x="290" y="-230" as="sourcePoint" />
            <mxPoint x="285" y="-280" as="targetPoint" />
          </mxGeometry>
        </mxCell>
        <mxCell id="KG3h8wtog52oOwl-IjPc-14" value="&lt;p style=&quot;margin:0px;margin-top:4px;text-align:center;&quot;&gt;&lt;i&gt;&amp;lt;&amp;lt;Interface&amp;gt;&amp;gt;&lt;/i&gt;&lt;br&gt;&lt;b&gt;IBody&lt;/b&gt;&lt;/p&gt;&lt;hr size=&quot;1&quot; style=&quot;border-style:solid;&quot;&gt;&lt;p style=&quot;margin:0px;margin-left:4px;&quot;&gt;&lt;br&gt;&lt;/p&gt;&lt;hr size=&quot;1&quot; style=&quot;border-style:solid;&quot;&gt;&lt;p style=&quot;margin:0px;margin-left:4px;&quot;&gt;&lt;br&gt;&lt;/p&gt;" style="verticalAlign=top;align=left;overflow=fill;html=1;whiteSpace=wrap;" parent="1" vertex="1">
          <mxGeometry x="-60" y="-420" width="200" height="140" as="geometry" />
        </mxCell>
        <mxCell id="KG3h8wtog52oOwl-IjPc-16" value="&lt;p style=&quot;margin:0px;margin-top:4px;text-align:center;&quot;&gt;&lt;i&gt;&amp;lt;&amp;lt;Interface&amp;gt;&amp;gt;&lt;/i&gt;&lt;br&gt;&lt;b&gt;IAccessor&lt;/b&gt;&lt;/p&gt;&lt;hr size=&quot;1&quot; style=&quot;border-style:solid;&quot;&gt;&lt;p style=&quot;margin:0px;margin-left:4px;&quot;&gt;&lt;br&gt;&lt;/p&gt;&lt;hr size=&quot;1&quot; style=&quot;border-style:solid;&quot;&gt;&lt;p style=&quot;margin:0px;margin-left:4px;&quot;&gt;&lt;br&gt;&lt;/p&gt;" style="verticalAlign=top;align=left;overflow=fill;html=1;whiteSpace=wrap;" parent="1" vertex="1">
          <mxGeometry x="-322.5" y="-420" width="190" height="140" as="geometry" />
        </mxCell>
        <mxCell id="KG3h8wtog52oOwl-IjPc-17" value="" style="endArrow=block;dashed=1;endFill=0;endSize=12;html=1;rounded=0;entryX=0.5;entryY=1;entryDx=0;entryDy=0;" parent="1" source="rnsp_3mBkwOscuIRbUeU-22" target="KG3h8wtog52oOwl-IjPc-14" edge="1">
          <mxGeometry width="160" relative="1" as="geometry">
            <mxPoint x="600" y="280" as="sourcePoint" />
            <mxPoint x="40" y="-450" as="targetPoint" />
          </mxGeometry>
        </mxCell>
        <mxCell id="KG3h8wtog52oOwl-IjPc-18" value="" style="endArrow=block;dashed=1;endFill=0;endSize=12;html=1;rounded=0;entryX=0.5;entryY=1;entryDx=0;entryDy=0;" parent="1" target="KG3h8wtog52oOwl-IjPc-16" edge="1">
          <mxGeometry width="160" relative="1" as="geometry">
            <mxPoint x="-227.5" y="-230" as="sourcePoint" />
            <mxPoint x="-228.12" y="-250" as="targetPoint" />
          </mxGeometry>
        </mxCell>
        <mxCell id="KG3h8wtog52oOwl-IjPc-19" value="&lt;p style=&quot;margin:0px;margin-top:4px;text-align:center;&quot;&gt;&lt;i&gt;&amp;lt;&amp;lt;Interface&amp;gt;&amp;gt;&lt;/i&gt;&lt;br&gt;&lt;b&gt;ICarPartsFactory&lt;/b&gt;&lt;/p&gt;&lt;hr size=&quot;1&quot; style=&quot;border-style:solid;&quot;&gt;&lt;p style=&quot;margin:0px;margin-left:4px;&quot;&gt;&lt;br&gt;&lt;/p&gt;&lt;hr size=&quot;1&quot; style=&quot;border-style:solid;&quot;&gt;&lt;p style=&quot;margin:0px;margin-left:4px;&quot;&gt;+ createEngine(): IEngine&lt;br&gt;+ createBody(): IBody&lt;/p&gt;&lt;p style=&quot;margin:0px;margin-left:4px;&quot;&gt;+ createAccessor(): IAccessor&lt;/p&gt;" style="verticalAlign=top;align=left;overflow=fill;html=1;whiteSpace=wrap;" parent="1" vertex="1">
          <mxGeometry x="430" y="-510" width="190" height="140" as="geometry" />
        </mxCell>
        <mxCell id="KG3h8wtog52oOwl-IjPc-20" value="&lt;p style=&quot;margin:0px;margin-top:4px;text-align:center;&quot;&gt;&lt;b&gt;CarPartsFactory&lt;/b&gt;&lt;/p&gt;&lt;hr size=&quot;1&quot; style=&quot;border-style:solid;&quot;&gt;&lt;p style=&quot;margin:0px;margin-left:4px;&quot;&gt;&lt;br&gt;&lt;/p&gt;&lt;hr size=&quot;1&quot; style=&quot;border-style:solid;&quot;&gt;&lt;p style=&quot;margin:0px;margin-left:4px;&quot;&gt;+ createEngine(): IEngine&lt;br&gt;+ createBody(): IBody&lt;/p&gt;&lt;p style=&quot;margin:0px;margin-left:4px;&quot;&gt;+ createAccessor(): IAccessor&lt;/p&gt;" style="verticalAlign=top;align=left;overflow=fill;html=1;whiteSpace=wrap;" parent="1" vertex="1">
          <mxGeometry x="430" y="-710" width="190" height="140" as="geometry" />
        </mxCell>
        <mxCell id="KG3h8wtog52oOwl-IjPc-21" value="" style="endArrow=block;dashed=1;endFill=0;endSize=12;html=1;rounded=0;" parent="1" edge="1">
          <mxGeometry width="160" relative="1" as="geometry">
            <mxPoint x="525" y="-560" as="sourcePoint" />
            <mxPoint x="525" y="-510" as="targetPoint" />
          </mxGeometry>
        </mxCell>
        <mxCell id="KG3h8wtog52oOwl-IjPc-25" value="Use" style="endArrow=open;endSize=12;dashed=1;html=1;rounded=0;exitX=0;exitY=0.25;exitDx=0;exitDy=0;" parent="1" source="KG3h8wtog52oOwl-IjPc-20" edge="1">
          <mxGeometry width="160" relative="1" as="geometry">
            <mxPoint x="-40" y="-430" as="sourcePoint" />
            <mxPoint x="290" y="-420" as="targetPoint" />
            <Array as="points">
              <mxPoint x="285" y="-665" />
            </Array>
          </mxGeometry>
        </mxCell>
        <mxCell id="KG3h8wtog52oOwl-IjPc-26" value="Use" style="endArrow=open;endSize=12;dashed=1;html=1;rounded=0;exitX=0;exitY=0.25;exitDx=0;exitDy=0;" parent="1" edge="1">
          <mxGeometry width="160" relative="1" as="geometry">
            <mxPoint x="430" y="-690" as="sourcePoint" />
            <mxPoint x="-210" y="-430" as="targetPoint" />
            <Array as="points">
              <mxPoint x="-205" y="-680" />
            </Array>
          </mxGeometry>
        </mxCell>
        <mxCell id="KG3h8wtog52oOwl-IjPc-27" value="Use" style="endArrow=open;endSize=12;dashed=1;html=1;rounded=0;exitX=0;exitY=0.25;exitDx=0;exitDy=0;entryX=0.25;entryY=0;entryDx=0;entryDy=0;" parent="1" target="KG3h8wtog52oOwl-IjPc-14" edge="1">
          <mxGeometry width="160" relative="1" as="geometry">
            <mxPoint x="430" y="-680" as="sourcePoint" />
            <mxPoint x="285" y="-615" as="targetPoint" />
            <Array as="points">
              <mxPoint x="40" y="-670" />
            </Array>
          </mxGeometry>
        </mxCell>
        <mxCell id="KG3h8wtog52oOwl-IjPc-32" value="&lt;p style=&quot;margin:0px;margin-top:4px;text-align:center;&quot;&gt;&lt;b&gt;Car&lt;/b&gt;&lt;/p&gt;&lt;hr size=&quot;1&quot; style=&quot;border-style:solid;&quot;&gt;&lt;p style=&quot;margin:0px;margin-left:4px;&quot;&gt;id: integer&lt;/p&gt;&lt;p style=&quot;margin:0px;margin-left:4px;&quot;&gt;body: IBody&lt;/p&gt;&lt;p style=&quot;margin:0px;margin-left:4px;&quot;&gt;engine: IEngine&lt;/p&gt;&lt;p style=&quot;margin:0px;margin-left:4px;&quot;&gt;accessor: IAccessor&lt;/p&gt;&lt;hr size=&quot;1&quot; style=&quot;border-style:solid;&quot;&gt;&lt;p style=&quot;margin:0px;margin-left:4px;&quot;&gt;&lt;br&gt;&lt;/p&gt;" style="verticalAlign=top;align=left;overflow=fill;html=1;whiteSpace=wrap;" parent="1" vertex="1">
          <mxGeometry x="-630" y="-230" width="190" height="100" as="geometry" />
        </mxCell>
        <mxCell id="KG3h8wtog52oOwl-IjPc-33" value="&lt;p style=&quot;margin:0px;margin-top:4px;text-align:center;&quot;&gt;&lt;i&gt;&amp;lt;&amp;lt;Interface&amp;gt;&amp;gt;&lt;/i&gt;&lt;br&gt;&lt;b&gt;ICar&lt;/b&gt;&lt;/p&gt;&lt;hr size=&quot;1&quot; style=&quot;border-style:solid;&quot;&gt;&lt;p style=&quot;margin:0px;margin-left:4px;&quot;&gt;&lt;br&gt;&lt;/p&gt;&lt;hr size=&quot;1&quot; style=&quot;border-style:solid;&quot;&gt;&lt;p style=&quot;margin:0px;margin-left:4px;&quot;&gt;&lt;br&gt;&lt;/p&gt;" style="verticalAlign=top;align=left;overflow=fill;html=1;whiteSpace=wrap;" parent="1" vertex="1">
          <mxGeometry x="-630" y="-420" width="190" height="140" as="geometry" />
        </mxCell>
        <mxCell id="KG3h8wtog52oOwl-IjPc-34" value="" style="endArrow=block;dashed=1;endFill=0;endSize=12;html=1;rounded=0;exitX=0.5;exitY=0;exitDx=0;exitDy=0;" parent="1" source="KG3h8wtog52oOwl-IjPc-32" edge="1">
          <mxGeometry width="160" relative="1" as="geometry">
            <mxPoint x="-620" y="-500" as="sourcePoint" />
            <mxPoint x="-535" y="-280" as="targetPoint" />
          </mxGeometry>
        </mxCell>
        <mxCell id="KG3h8wtog52oOwl-IjPc-35" value="&lt;p style=&quot;margin:0px;margin-top:4px;text-align:center;&quot;&gt;&lt;i&gt;&amp;lt;&amp;lt;Interface&amp;gt;&amp;gt;&lt;/i&gt;&lt;br&gt;&lt;b&gt;ICarBuilder&lt;/b&gt;&lt;/p&gt;&lt;hr size=&quot;1&quot; style=&quot;border-style:solid;&quot;&gt;&lt;p style=&quot;margin:0px;margin-left:4px;&quot;&gt;&lt;br&gt;&lt;/p&gt;&lt;hr size=&quot;1&quot; style=&quot;border-style:solid;&quot;&gt;&lt;p style=&quot;margin:0px;margin-left:4px;&quot;&gt;+ setEngine(engine: IEngine)&lt;/p&gt;&lt;p style=&quot;margin:0px;margin-left:4px;&quot;&gt;+ setBody(body: IBody)&lt;/p&gt;&lt;p style=&quot;margin:0px;margin-left:4px;&quot;&gt;+ setAccessor(accessor: IAccessor)&lt;/p&gt;" style="verticalAlign=top;align=left;overflow=fill;html=1;whiteSpace=wrap;" parent="1" vertex="1">
          <mxGeometry x="-550" y="-1000" width="190" height="140" as="geometry" />
        </mxCell>
        <mxCell id="KG3h8wtog52oOwl-IjPc-36" value="&lt;p style=&quot;margin:0px;margin-top:4px;text-align:center;&quot;&gt;&lt;b&gt;CarBuilder&lt;/b&gt;&lt;/p&gt;&lt;hr size=&quot;1&quot; style=&quot;border-style:solid;&quot;&gt;&lt;p style=&quot;margin:0px;margin-left:4px;&quot;&gt;&lt;br&gt;&lt;/p&gt;&lt;hr size=&quot;1&quot; style=&quot;border-style:solid;&quot;&gt;&lt;p style=&quot;margin: 0px 0px 0px 4px;&quot;&gt;+ setEngine(engine: IEngine)&lt;/p&gt;&lt;p style=&quot;margin: 0px 0px 0px 4px;&quot;&gt;+ setBody(body: IBody)&lt;/p&gt;&lt;p style=&quot;margin: 0px 0px 0px 4px;&quot;&gt;+ setAccessor(accessor: IAccessor)&lt;/p&gt;&lt;p style=&quot;margin: 0px 0px 0px 4px;&quot;&gt;+ getCar(): ICar&lt;/p&gt;" style="verticalAlign=top;align=left;overflow=fill;html=1;whiteSpace=wrap;" parent="1" vertex="1">
          <mxGeometry x="-550" y="-810" width="190" height="140" as="geometry" />
        </mxCell>
        <mxCell id="KG3h8wtog52oOwl-IjPc-37" value="" style="endArrow=block;dashed=1;endFill=0;endSize=12;html=1;rounded=0;exitX=0.5;exitY=0;exitDx=0;exitDy=0;entryX=0.5;entryY=1;entryDx=0;entryDy=0;" parent="1" source="KG3h8wtog52oOwl-IjPc-36" target="KG3h8wtog52oOwl-IjPc-35" edge="1">
          <mxGeometry width="160" relative="1" as="geometry">
            <mxPoint x="-590" y="-790" as="sourcePoint" />
            <mxPoint x="-430" y="-790" as="targetPoint" />
          </mxGeometry>
        </mxCell>
        <mxCell id="KG3h8wtog52oOwl-IjPc-38" value="Use" style="endArrow=open;endSize=12;dashed=1;html=1;rounded=0;exitX=1.005;exitY=0.439;exitDx=0;exitDy=0;exitPerimeter=0;" parent="1" source="KG3h8wtog52oOwl-IjPc-36" edge="1">
          <mxGeometry width="160" relative="1" as="geometry">
            <mxPoint x="-480" y="-710" as="sourcePoint" />
            <mxPoint x="290" y="-420" as="targetPoint" />
            <Array as="points">
              <mxPoint x="290" y="-750" />
            </Array>
          </mxGeometry>
        </mxCell>
        <mxCell id="KG3h8wtog52oOwl-IjPc-39" value="Use" style="endArrow=open;endSize=12;dashed=1;html=1;rounded=0;exitX=1.016;exitY=0.568;exitDx=0;exitDy=0;exitPerimeter=0;" parent="1" source="KG3h8wtog52oOwl-IjPc-36" edge="1">
          <mxGeometry width="160" relative="1" as="geometry">
            <mxPoint x="-349" y="-739" as="sourcePoint" />
            <mxPoint x="-205" y="-420" as="targetPoint" />
            <Array as="points">
              <mxPoint x="-205" y="-730" />
            </Array>
          </mxGeometry>
        </mxCell>
        <mxCell id="KG3h8wtog52oOwl-IjPc-40" value="Use" style="endArrow=open;endSize=12;dashed=1;html=1;rounded=0;exitX=1.005;exitY=0.439;exitDx=0;exitDy=0;exitPerimeter=0;" parent="1" edge="1">
          <mxGeometry width="160" relative="1" as="geometry">
            <mxPoint x="-360" y="-709" as="sourcePoint" />
            <mxPoint x="40" y="-420" as="targetPoint" />
            <Array as="points">
              <mxPoint x="40" y="-710" />
            </Array>
          </mxGeometry>
        </mxCell>
        <mxCell id="KG3h8wtog52oOwl-IjPc-42" value="Use" style="endArrow=open;endSize=12;dashed=1;html=1;rounded=0;exitX=0.25;exitY=1;exitDx=0;exitDy=0;entryX=0.5;entryY=0;entryDx=0;entryDy=0;" parent="1" source="KG3h8wtog52oOwl-IjPc-36" target="KG3h8wtog52oOwl-IjPc-33" edge="1">
          <mxGeometry width="160" relative="1" as="geometry">
            <mxPoint x="-290" y="-630" as="sourcePoint" />
            <mxPoint x="-130" y="-630" as="targetPoint" />
          </mxGeometry>
        </mxCell>
        <mxCell id="RlL2vK3WvNa1BWt1NXNE-1" value="&lt;p style=&quot;margin:0px;margin-top:4px;text-align:center;&quot;&gt;&lt;i&gt;&amp;lt;&amp;lt;Interface&amp;gt;&amp;gt;&lt;/i&gt;&lt;br&gt;&lt;b&gt;ISupplier&lt;/b&gt;&lt;/p&gt;&lt;hr size=&quot;1&quot; style=&quot;border-style:solid;&quot;&gt;&lt;p style=&quot;margin:0px;margin-left:4px;&quot;&gt;&lt;br&gt;&lt;/p&gt;&lt;hr size=&quot;1&quot; style=&quot;border-style:solid;&quot;&gt;&lt;p style=&quot;margin: 0px 0px 0px 4px;&quot;&gt;+ deliverEngine(): IEngine&lt;/p&gt;&lt;p style=&quot;margin: 0px 0px 0px 4px;&quot;&gt;+ deliverBody(): IBody&lt;/p&gt;&lt;p style=&quot;margin: 0px 0px 0px 4px;&quot;&gt;+ deliverAccessor(): IAccessor&lt;/p&gt;" style="verticalAlign=top;align=left;overflow=fill;html=1;whiteSpace=wrap;" parent="1" vertex="1">
          <mxGeometry x="-905" y="-414" width="190" height="140" as="geometry" />
        </mxCell>
        <mxCell id="RlL2vK3WvNa1BWt1NXNE-2" value="&lt;p style=&quot;margin:0px;margin-top:4px;text-align:center;&quot;&gt;&lt;b&gt;Supplier (Director)&lt;/b&gt;&lt;/p&gt;&lt;hr size=&quot;1&quot; style=&quot;border-style:solid;&quot;&gt;&lt;p style=&quot;margin:0px;margin-left:4px;&quot;&gt;- carsPartsFactory: ICarsPartsFactory&lt;/p&gt;&lt;hr size=&quot;1&quot; style=&quot;border-style:solid;&quot;&gt;&lt;p style=&quot;margin:0px;margin-left:4px;&quot;&gt;+ deliverEngine(): IEngine&lt;/p&gt;&lt;p style=&quot;margin:0px;margin-left:4px;&quot;&gt;+ deliverBody(): IBody&lt;/p&gt;&lt;p style=&quot;margin:0px;margin-left:4px;&quot;&gt;+ deliverAccessor(): IAccessor&lt;br&gt;&lt;/p&gt;" style="verticalAlign=top;align=left;overflow=fill;html=1;whiteSpace=wrap;" parent="1" vertex="1">
          <mxGeometry x="-920" y="-600" width="220" height="116" as="geometry" />
        </mxCell>
        <mxCell id="RlL2vK3WvNa1BWt1NXNE-3" value="" style="endArrow=block;dashed=1;endFill=0;endSize=12;html=1;rounded=0;exitX=0.5;exitY=1;exitDx=0;exitDy=0;entryX=0.5;entryY=0;entryDx=0;entryDy=0;" parent="1" source="RlL2vK3WvNa1BWt1NXNE-2" target="RlL2vK3WvNa1BWt1NXNE-1" edge="1">
          <mxGeometry width="160" relative="1" as="geometry">
            <mxPoint x="-900" y="-434" as="sourcePoint" />
            <mxPoint x="-740" y="-434" as="targetPoint" />
          </mxGeometry>
        </mxCell>
        <mxCell id="RlL2vK3WvNa1BWt1NXNE-8" value="&lt;p style=&quot;margin:0px;margin-top:4px;text-align:center;&quot;&gt;&lt;i&gt;&amp;lt;&amp;lt;Interface&amp;gt;&amp;gt;&lt;/i&gt;&lt;br&gt;&lt;b&gt;Storage&amp;lt;T&amp;gt;&lt;/b&gt;&lt;/p&gt;&lt;hr size=&quot;1&quot; style=&quot;border-style:solid;&quot;&gt;&lt;p style=&quot;margin: 4px 0px 0px;&quot;&gt;&lt;span style=&quot;background-color: initial;&quot;&gt;&lt;br&gt;&lt;/span&gt;&lt;/p&gt;&lt;hr style=&quot;border-style: solid;&quot; size=&quot;1&quot;&gt;&lt;p style=&quot;margin: 0px 0px 0px 4px;&quot;&gt;+ isFull(): boolean&lt;/p&gt;&lt;p style=&quot;margin: 0px 0px 0px 4px;&quot;&gt;+ add(item: T): void&lt;/p&gt;&lt;p style=&quot;margin: 0px 0px 0px 4px;&quot;&gt;+ get(): T&lt;/p&gt;" style="verticalAlign=top;align=left;overflow=fill;html=1;whiteSpace=wrap;" parent="1" vertex="1">
          <mxGeometry x="-210" y="-1360" width="190" height="140" as="geometry" />
        </mxCell>
        <mxCell id="RlL2vK3WvNa1BWt1NXNE-9" value="&lt;p style=&quot;margin:0px;margin-top:4px;text-align:center;&quot;&gt;&lt;b&gt;BodiesStorage&lt;/b&gt;&lt;/p&gt;&lt;hr size=&quot;1&quot; style=&quot;border-style:solid;&quot;&gt;&lt;p style=&quot;margin: 4px 0px 0px;&quot;&gt;&lt;span style=&quot;background-color: initial;&quot;&gt;&amp;nbsp;- maxSize: integer&lt;/span&gt;&lt;/p&gt;&lt;p style=&quot;margin: 0px 0px 0px 4px;&quot;&gt;- items: List&amp;lt;Body&amp;gt;&lt;/p&gt;&lt;hr style=&quot;border-style: solid;&quot; size=&quot;1&quot;&gt;&lt;p style=&quot;margin: 0px 0px 0px 4px;&quot;&gt;+ isFull(): boolean&lt;/p&gt;&lt;p style=&quot;margin: 0px 0px 0px 4px;&quot;&gt;+ add(item: Body): void&lt;/p&gt;&lt;p style=&quot;margin: 0px 0px 0px 4px;&quot;&gt;+ get(): Body&lt;/p&gt;" style="verticalAlign=top;align=left;overflow=fill;html=1;whiteSpace=wrap;" parent="1" vertex="1">
          <mxGeometry x="130" y="-1035" width="190" height="140" as="geometry" />
        </mxCell>
        <mxCell id="RlL2vK3WvNa1BWt1NXNE-10" value="&lt;p style=&quot;margin:0px;margin-top:4px;text-align:center;&quot;&gt;&lt;b&gt;AccessorsStorage&lt;/b&gt;&lt;/p&gt;&lt;hr size=&quot;1&quot; style=&quot;border-style:solid;&quot;&gt;&lt;p style=&quot;margin: 4px 0px 0px;&quot;&gt;&lt;span style=&quot;background-color: initial;&quot;&gt;&amp;nbsp;- maxSize: integer&lt;/span&gt;&lt;/p&gt;&lt;p style=&quot;margin: 0px 0px 0px 4px;&quot;&gt;- items: List&amp;lt;Accessor&amp;gt;&lt;/p&gt;&lt;hr style=&quot;border-style: solid;&quot; size=&quot;1&quot;&gt;&lt;p style=&quot;margin: 0px 0px 0px 4px;&quot;&gt;+ isFull(): boolean&lt;/p&gt;&lt;p style=&quot;margin: 0px 0px 0px 4px;&quot;&gt;+ add(item: Accessor): void&lt;/p&gt;&lt;p style=&quot;margin: 0px 0px 0px 4px;&quot;&gt;+ get(): Accessor&lt;/p&gt;" style="verticalAlign=top;align=left;overflow=fill;html=1;whiteSpace=wrap;" parent="1" vertex="1">
          <mxGeometry x="-200" y="-1030" width="190" height="140" as="geometry" />
        </mxCell>
        <mxCell id="RlL2vK3WvNa1BWt1NXNE-11" value="&lt;p style=&quot;margin:0px;margin-top:4px;text-align:center;&quot;&gt;&lt;b&gt;EnginesStorage&lt;/b&gt;&lt;/p&gt;&lt;hr size=&quot;1&quot; style=&quot;border-style:solid;&quot;&gt;&lt;p style=&quot;margin: 4px 0px 0px;&quot;&gt;&lt;span style=&quot;background-color: initial;&quot;&gt;&amp;nbsp;- maxSize: integer&lt;/span&gt;&lt;/p&gt;&lt;p style=&quot;margin: 0px 0px 0px 4px;&quot;&gt;- items: List&amp;lt;IEngine&amp;gt;&lt;/p&gt;&lt;hr style=&quot;border-style: solid;&quot; size=&quot;1&quot;&gt;&lt;p style=&quot;margin: 0px 0px 0px 4px;&quot;&gt;+ isFull(): boolean&lt;/p&gt;&lt;p style=&quot;margin: 0px 0px 0px 4px;&quot;&gt;+ add(item: IEngine): void&lt;/p&gt;&lt;p style=&quot;margin: 0px 0px 0px 4px;&quot;&gt;+ get(): IEngine&lt;/p&gt;" style="verticalAlign=top;align=left;overflow=fill;html=1;whiteSpace=wrap;" parent="1" vertex="1">
          <mxGeometry x="450" y="-1035" width="190" height="140" as="geometry" />
        </mxCell>
        <mxCell id="RlL2vK3WvNa1BWt1NXNE-13" value="" style="endArrow=block;dashed=1;endFill=0;endSize=12;html=1;rounded=0;exitX=0.5;exitY=0;exitDx=0;exitDy=0;entryX=0.5;entryY=1;entryDx=0;entryDy=0;" parent="1" source="RlL2vK3WvNa1BWt1NXNE-9" target="RlL2vK3WvNa1BWt1NXNE-8" edge="1">
          <mxGeometry width="160" relative="1" as="geometry">
            <mxPoint x="120" y="-1050" as="sourcePoint" />
            <mxPoint x="280" y="-1050" as="targetPoint" />
          </mxGeometry>
        </mxCell>
        <mxCell id="RlL2vK3WvNa1BWt1NXNE-14" value="" style="endArrow=block;dashed=1;endFill=0;endSize=12;html=1;rounded=0;exitX=0.5;exitY=0;exitDx=0;exitDy=0;entryX=0.5;entryY=1;entryDx=0;entryDy=0;" parent="1" source="RlL2vK3WvNa1BWt1NXNE-11" target="RlL2vK3WvNa1BWt1NXNE-8" edge="1">
          <mxGeometry width="160" relative="1" as="geometry">
            <mxPoint x="120" y="-1050" as="sourcePoint" />
            <mxPoint x="280" y="-1050" as="targetPoint" />
          </mxGeometry>
        </mxCell>
        <mxCell id="RlL2vK3WvNa1BWt1NXNE-15" value="" style="endArrow=block;dashed=1;endFill=0;endSize=12;html=1;rounded=0;exitX=0.5;exitY=0;exitDx=0;exitDy=0;entryX=0.25;entryY=1;entryDx=0;entryDy=0;" parent="1" source="RlL2vK3WvNa1BWt1NXNE-10" edge="1" target="RlL2vK3WvNa1BWt1NXNE-8">
          <mxGeometry width="160" relative="1" as="geometry">
            <mxPoint x="120" y="-1050" as="sourcePoint" />
            <mxPoint x="200" y="-1240" as="targetPoint" />
          </mxGeometry>
        </mxCell>
        <mxCell id="RlL2vK3WvNa1BWt1NXNE-16" value="Use" style="endArrow=open;endSize=12;dashed=1;html=1;rounded=0;exitX=0.454;exitY=1.003;exitDx=0;exitDy=0;exitPerimeter=0;entryX=0.5;entryY=0;entryDx=0;entryDy=0;" parent="1" source="RlL2vK3WvNa1BWt1NXNE-10" edge="1" target="KG3h8wtog52oOwl-IjPc-16">
          <mxGeometry width="160" relative="1" as="geometry">
            <mxPoint x="-80" y="-750" as="sourcePoint" />
            <mxPoint x="-200" y="-610" as="targetPoint" />
          </mxGeometry>
        </mxCell>
        <mxCell id="RlL2vK3WvNa1BWt1NXNE-17" value="Use" style="endArrow=open;endSize=12;dashed=1;html=1;rounded=0;exitX=0.5;exitY=1;exitDx=0;exitDy=0;entryX=0.25;entryY=0;entryDx=0;entryDy=0;" parent="1" source="RlL2vK3WvNa1BWt1NXNE-11" edge="1" target="KG3h8wtog52oOwl-IjPc-11">
          <mxGeometry width="160" relative="1" as="geometry">
            <mxPoint x="430" y="-890" as="sourcePoint" />
            <mxPoint x="280" y="-610" as="targetPoint" />
            <Array as="points">
              <mxPoint x="238" y="-680" />
            </Array>
          </mxGeometry>
        </mxCell>
        <mxCell id="cKuI0ri_H7yRxGVmi5EV-1" value="Text" style="edgeLabel;html=1;align=center;verticalAlign=middle;resizable=0;points=[];" vertex="1" connectable="0" parent="RlL2vK3WvNa1BWt1NXNE-17">
          <mxGeometry x="0.1228" y="2" relative="1" as="geometry">
            <mxPoint y="-1" as="offset" />
          </mxGeometry>
        </mxCell>
        <mxCell id="RlL2vK3WvNa1BWt1NXNE-18" value="Use" style="endArrow=open;endSize=12;dashed=1;html=1;rounded=0;exitX=0.5;exitY=1;exitDx=0;exitDy=0;entryX=0.75;entryY=0;entryDx=0;entryDy=0;" parent="1" source="RlL2vK3WvNa1BWt1NXNE-9" target="KG3h8wtog52oOwl-IjPc-14" edge="1">
          <mxGeometry width="160" relative="1" as="geometry">
            <mxPoint x="-80" y="-750" as="sourcePoint" />
            <mxPoint x="80" y="-750" as="targetPoint" />
          </mxGeometry>
        </mxCell>
        <mxCell id="RlL2vK3WvNa1BWt1NXNE-19" value="" style="endArrow=block;dashed=1;endFill=0;endSize=12;html=1;rounded=0;exitX=1;exitY=0.5;exitDx=0;exitDy=0;entryX=0;entryY=0.5;entryDx=0;entryDy=0;" parent="1" source="rnsp_3mBkwOscuIRbUeU-25" target="RlL2vK3WvNa1BWt1NXNE-8" edge="1">
          <mxGeometry width="160" relative="1" as="geometry">
            <mxPoint x="-530" y="-1000" as="sourcePoint" />
            <mxPoint x="-370" y="-1000" as="targetPoint" />
          </mxGeometry>
        </mxCell>
        <mxCell id="RlL2vK3WvNa1BWt1NXNE-20" value="Use" style="endArrow=open;endSize=12;dashed=1;html=1;rounded=0;exitX=0.75;exitY=1;exitDx=0;exitDy=0;entryX=0.5;entryY=0;entryDx=0;entryDy=0;" parent="1" source="rnsp_3mBkwOscuIRbUeU-25" target="KG3h8wtog52oOwl-IjPc-33" edge="1">
          <mxGeometry width="160" relative="1" as="geometry">
            <mxPoint x="-620" y="-960" as="sourcePoint" />
            <mxPoint x="-572" y="-230" as="targetPoint" />
          </mxGeometry>
        </mxCell>
        <mxCell id="RlL2vK3WvNa1BWt1NXNE-22" value="&lt;p style=&quot;margin:0px;margin-top:4px;text-align:center;&quot;&gt;&lt;b&gt;CarsRepositoryController&lt;br&gt;(Mediator)&lt;/b&gt;&lt;/p&gt;&lt;hr size=&quot;1&quot; style=&quot;border-style:solid;&quot;&gt;&lt;p style=&quot;margin:0px;margin-left:4px;&quot;&gt;&lt;br&gt;&lt;/p&gt;&lt;hr size=&quot;1&quot; style=&quot;border-style:solid;&quot;&gt;&lt;p style=&quot;margin:0px;margin-left:4px;&quot;&gt;+ analyze(): void&lt;/p&gt;" style="verticalAlign=top;align=left;overflow=fill;html=1;whiteSpace=wrap;" parent="1" vertex="1">
          <mxGeometry x="-1040" y="-1020" width="160" height="90" as="geometry" />
        </mxCell>
        <mxCell id="RlL2vK3WvNa1BWt1NXNE-23" value="Use" style="endArrow=open;endSize=12;dashed=1;html=1;rounded=0;exitX=0;exitY=0.5;exitDx=0;exitDy=0;entryX=0.75;entryY=0;entryDx=0;entryDy=0;" parent="1" source="rnsp_3mBkwOscuIRbUeU-25" target="RlL2vK3WvNa1BWt1NXNE-22" edge="1">
          <mxGeometry width="160" relative="1" as="geometry">
            <mxPoint x="-900" y="-980" as="sourcePoint" />
            <mxPoint x="-740" y="-980" as="targetPoint" />
          </mxGeometry>
        </mxCell>
        <mxCell id="RlL2vK3WvNa1BWt1NXNE-24" value="Use" style="endArrow=open;endSize=12;dashed=1;html=1;rounded=0;exitX=0.25;exitY=1;exitDx=0;exitDy=0;entryX=0.5;entryY=0;entryDx=0;entryDy=0;" parent="1" source="rnsp_3mBkwOscuIRbUeU-25" target="RlL2vK3WvNa1BWt1NXNE-2" edge="1">
          <mxGeometry width="160" relative="1" as="geometry">
            <mxPoint x="-820" y="-730" as="sourcePoint" />
            <mxPoint x="-660" y="-730" as="targetPoint" />
          </mxGeometry>
        </mxCell>
        <mxCell id="RlL2vK3WvNa1BWt1NXNE-26" value="&lt;p style=&quot;margin:0px;margin-top:4px;text-align:center;&quot;&gt;&lt;i&gt;&amp;lt;&amp;lt;Interface&amp;gt;&amp;gt;&lt;/i&gt;&lt;br&gt;&lt;b&gt;IDealer&lt;/b&gt;&lt;/p&gt;&lt;hr size=&quot;1&quot; style=&quot;border-style:solid;&quot;&gt;&lt;p style=&quot;margin:0px;margin-left:4px;&quot;&gt;&lt;/p&gt;&lt;p style=&quot;margin:0px;margin-left:4px;&quot;&gt;+ deliverCar(): Car&lt;br&gt;&lt;/p&gt;" style="verticalAlign=top;align=left;overflow=fill;html=1;whiteSpace=wrap;" parent="1" vertex="1">
          <mxGeometry x="-1170" y="-600" width="190" height="110" as="geometry" />
        </mxCell>
        <mxCell id="RlL2vK3WvNa1BWt1NXNE-27" value="" style="endArrow=block;dashed=1;endFill=0;endSize=12;html=1;rounded=0;entryX=0.5;entryY=0;entryDx=0;entryDy=0;exitX=0.468;exitY=1.015;exitDx=0;exitDy=0;exitPerimeter=0;" parent="1" source="pGTX71lNuf2riV2tVMr1-4" target="RlL2vK3WvNa1BWt1NXNE-26" edge="1">
          <mxGeometry width="160" relative="1" as="geometry">
            <mxPoint x="-1080" y="-660" as="sourcePoint" />
            <mxPoint x="-900" y="-630" as="targetPoint" />
          </mxGeometry>
        </mxCell>
        <mxCell id="RlL2vK3WvNa1BWt1NXNE-28" value="Use" style="endArrow=open;endSize=12;dashed=1;html=1;rounded=0;exitX=0.5;exitY=0;exitDx=0;exitDy=0;entryX=0.5;entryY=1;entryDx=0;entryDy=0;" parent="1" source="pGTX71lNuf2riV2tVMr1-4" target="rnsp_3mBkwOscuIRbUeU-25" edge="1">
          <mxGeometry width="160" relative="1" as="geometry">
            <mxPoint x="-1060" y="-840" as="sourcePoint" />
            <mxPoint x="-900" y="-840" as="targetPoint" />
          </mxGeometry>
        </mxCell>
        <mxCell id="RlL2vK3WvNa1BWt1NXNE-29" value="&lt;p style=&quot;margin:0px;margin-top:4px;text-align:center;&quot;&gt;&lt;b&gt;Customer&lt;/b&gt;&lt;/p&gt;&lt;hr size=&quot;1&quot; style=&quot;border-style:solid;&quot;&gt;&lt;p style=&quot;margin:0px;margin-left:4px;&quot;&gt;&lt;/p&gt;&lt;p style=&quot;margin:0px;margin-left:4px;&quot;&gt;+ requestCar(): Car&lt;/p&gt;" style="verticalAlign=top;align=left;overflow=fill;html=1;whiteSpace=wrap;" parent="1" vertex="1">
          <mxGeometry x="-2000" y="-830" width="200" height="150" as="geometry" />
        </mxCell>
        <mxCell id="RlL2vK3WvNa1BWt1NXNE-30" value="&lt;p style=&quot;margin:0px;margin-top:4px;text-align:center;&quot;&gt;&lt;i&gt;&amp;lt;&amp;lt;Interface&amp;gt;&amp;gt;&lt;/i&gt;&lt;br&gt;&lt;b&gt;ICustomer&lt;/b&gt;&lt;/p&gt;&lt;hr size=&quot;1&quot; style=&quot;border-style:solid;&quot;&gt;&lt;p style=&quot;margin:0px;margin-left:4px;&quot;&gt;&lt;br&gt;&lt;/p&gt;&lt;hr size=&quot;1&quot; style=&quot;border-style:solid;&quot;&gt;&lt;p style=&quot;margin:0px;margin-left:4px;&quot;&gt;+ requestCar(): Car&lt;br&gt;&lt;/p&gt;" style="verticalAlign=top;align=left;overflow=fill;html=1;whiteSpace=wrap;" parent="1" vertex="1">
          <mxGeometry x="-2190" y="-600" width="190" height="110" as="geometry" />
        </mxCell>
        <mxCell id="RlL2vK3WvNa1BWt1NXNE-31" value="" style="endArrow=block;dashed=1;endFill=0;endSize=12;html=1;rounded=0;entryX=0.5;entryY=0;entryDx=0;entryDy=0;exitX=0.468;exitY=1.015;exitDx=0;exitDy=0;exitPerimeter=0;" parent="1" source="RlL2vK3WvNa1BWt1NXNE-29" target="RlL2vK3WvNa1BWt1NXNE-30" edge="1">
          <mxGeometry width="160" relative="1" as="geometry">
            <mxPoint x="-1410" y="-650" as="sourcePoint" />
            <mxPoint x="-1230" y="-620" as="targetPoint" />
          </mxGeometry>
        </mxCell>
        <mxCell id="Cpst_2vj0uZUmUhsvRhu-1" value="&lt;p style=&quot;margin:0px;margin-top:4px;text-align:center;&quot;&gt;&lt;b&gt;FactoryApp&lt;/b&gt;&lt;/p&gt;&lt;hr size=&quot;1&quot; style=&quot;border-style:solid;&quot;&gt;&lt;p style=&quot;margin:0px;margin-left:4px;&quot;&gt;&lt;br&gt;&lt;/p&gt;&lt;hr size=&quot;1&quot; style=&quot;border-style:solid;&quot;&gt;&lt;p style=&quot;margin:0px;margin-left:4px;&quot;&gt;+ start(): void&lt;/p&gt;" style="verticalAlign=top;align=left;overflow=fill;html=1;whiteSpace=wrap;" parent="1" vertex="1">
          <mxGeometry x="667" y="-710" width="160" height="90" as="geometry" />
        </mxCell>
        <mxCell id="Cpst_2vj0uZUmUhsvRhu-2" value="&lt;p style=&quot;margin:0px;margin-top:4px;text-align:center;&quot;&gt;&lt;b&gt;Simulator (Facade) (Threads)&lt;/b&gt;&lt;/p&gt;&lt;hr size=&quot;1&quot; style=&quot;border-style:solid;&quot;&gt;&lt;p style=&quot;margin:0px;margin-left:4px;&quot;&gt;+ field: Type&lt;/p&gt;&lt;hr size=&quot;1&quot; style=&quot;border-style:solid;&quot;&gt;&lt;p style=&quot;margin:0px;margin-left:4px;&quot;&gt;+ method(): Type&lt;/p&gt;" style="verticalAlign=top;align=left;overflow=fill;html=1;whiteSpace=wrap;" parent="1" vertex="1">
          <mxGeometry x="667" y="-860" width="160" height="90" as="geometry" />
        </mxCell>
        <mxCell id="Cpst_2vj0uZUmUhsvRhu-4" value="&lt;p style=&quot;margin:0px;margin-top:4px;text-align:center;&quot;&gt;&lt;b&gt;DealerApp&lt;/b&gt;&lt;/p&gt;&lt;hr size=&quot;1&quot; style=&quot;border-style:solid;&quot;&gt;&lt;p style=&quot;margin:0px;margin-left:4px;&quot;&gt;+ field: Type&lt;/p&gt;&lt;hr size=&quot;1&quot; style=&quot;border-style:solid;&quot;&gt;&lt;p style=&quot;margin:0px;margin-left:4px;&quot;&gt;+ method(): Type&lt;/p&gt;" style="verticalAlign=top;align=left;overflow=fill;html=1;whiteSpace=wrap;" parent="1" vertex="1">
          <mxGeometry x="-1420" y="-670" width="160" height="90" as="geometry" />
        </mxCell>
        <mxCell id="Cpst_2vj0uZUmUhsvRhu-5" value="&lt;p style=&quot;margin:0px;margin-top:4px;text-align:center;&quot;&gt;&lt;b&gt;BuilderApp&lt;/b&gt;&lt;/p&gt;&lt;hr size=&quot;1&quot; style=&quot;border-style:solid;&quot;&gt;&lt;p style=&quot;margin:0px;margin-left:4px;&quot;&gt;+ field: Type&lt;/p&gt;&lt;hr size=&quot;1&quot; style=&quot;border-style:solid;&quot;&gt;&lt;p style=&quot;margin:0px;margin-left:4px;&quot;&gt;+ method(): Type&lt;/p&gt;" style="verticalAlign=top;align=left;overflow=fill;html=1;whiteSpace=wrap;" parent="1" vertex="1">
          <mxGeometry x="-1270" y="-1140" width="160" height="90" as="geometry" />
        </mxCell>
        <mxCell id="Cpst_2vj0uZUmUhsvRhu-7" value="&lt;p style=&quot;margin:0px;margin-top:4px;text-align:center;&quot;&gt;&lt;b&gt;Queu (Замовлення)&lt;/b&gt;&lt;span style=&quot;background-color: initial; text-align: left;&quot;&gt;&amp;nbsp;&lt;/span&gt;&lt;/p&gt;&lt;hr size=&quot;1&quot; style=&quot;border-style:solid;&quot;&gt;&lt;p style=&quot;margin:0px;margin-left:4px;&quot;&gt;+ field: Type&lt;/p&gt;&lt;hr size=&quot;1&quot; style=&quot;border-style:solid;&quot;&gt;&lt;p style=&quot;margin:0px;margin-left:4px;&quot;&gt;+ method(): Type&lt;/p&gt;" style="verticalAlign=top;align=left;overflow=fill;html=1;whiteSpace=wrap;" parent="1" vertex="1">
          <mxGeometry x="-1420" y="-840" width="160" height="90" as="geometry" />
        </mxCell>
        <mxCell id="Cpst_2vj0uZUmUhsvRhu-8" value="&lt;p style=&quot;margin:0px;margin-top:4px;text-align:center;&quot;&gt;&lt;b&gt;GeneratorStrategy&lt;/b&gt;&lt;/p&gt;&lt;hr size=&quot;1&quot; style=&quot;border-style:solid;&quot;&gt;&lt;p style=&quot;margin:0px;margin-left:4px;&quot;&gt;+ field: Type&lt;/p&gt;&lt;hr size=&quot;1&quot; style=&quot;border-style:solid;&quot;&gt;&lt;p style=&quot;margin:0px;margin-left:4px;&quot;&gt;+ method(): Type&lt;/p&gt;" style="verticalAlign=top;align=left;overflow=fill;html=1;whiteSpace=wrap;" parent="1" vertex="1">
          <mxGeometry x="-1410" y="-1000" width="160" height="90" as="geometry" />
        </mxCell>
        <mxCell id="Cpst_2vj0uZUmUhsvRhu-11" value="&lt;p style=&quot;margin:0px;margin-top:4px;text-align:center;&quot;&gt;&lt;i&gt;&amp;lt;&amp;lt;Interface&amp;gt;&amp;gt;&lt;/i&gt;&lt;br&gt;&lt;b&gt;IDatabase (Що робити якщо я захочу змінити провайдера)&lt;/b&gt;&lt;/p&gt;&lt;hr size=&quot;1&quot; style=&quot;border-style:solid;&quot;&gt;&lt;p style=&quot;margin:0px;margin-left:4px;&quot;&gt;&lt;br&gt;&lt;/p&gt;&lt;hr size=&quot;1&quot; style=&quot;border-style:solid;&quot;&gt;&lt;p style=&quot;margin:0px;margin-left:4px;&quot;&gt;+ getInstance(): IDatabase&lt;br&gt;&lt;/p&gt;&lt;p style=&quot;margin: 0px 0px 0px 4px;&quot;&gt;+ getInstance(): Database&lt;/p&gt;&lt;p style=&quot;margin: 0px 0px 0px 4px;&quot;&gt;+ getClient(): Client&lt;/p&gt;&lt;p style=&quot;margin: 0px 0px 0px 4px;&quot;&gt;+ init(config: Config): void&lt;/p&gt;" style="verticalAlign=top;align=left;overflow=fill;html=1;whiteSpace=wrap;" parent="1" vertex="1">
          <mxGeometry x="477" y="-1710" width="190" height="160" as="geometry" />
        </mxCell>
        <mxCell id="Cpst_2vj0uZUmUhsvRhu-12" value="&lt;p style=&quot;margin:0px;margin-top:4px;text-align:center;&quot;&gt;&lt;b&gt;Database&lt;/b&gt;&lt;/p&gt;&lt;hr size=&quot;1&quot; style=&quot;border-style:solid;&quot;&gt;&lt;p style=&quot;margin: 4px 0px 0px;&quot;&gt;&lt;span style=&quot;background-color: initial;&quot;&gt;&amp;nbsp;- client: Client&lt;/span&gt;&lt;/p&gt;&lt;hr style=&quot;border-style: solid;&quot; size=&quot;1&quot;&gt;&lt;p style=&quot;margin: 0px 0px 0px 4px;&quot;&gt;&amp;nbsp;- Database()&lt;/p&gt;&lt;p style=&quot;margin: 0px 0px 0px 4px;&quot;&gt;+ getInstance(): Database&lt;/p&gt;&lt;p style=&quot;margin: 0px 0px 0px 4px;&quot;&gt;+ getClient(): Client&lt;/p&gt;&lt;p style=&quot;margin: 0px 0px 0px 4px;&quot;&gt;+ init(config: Config): void&lt;/p&gt;" style="verticalAlign=top;align=left;overflow=fill;html=1;whiteSpace=wrap;" parent="1" vertex="1">
          <mxGeometry x="477" y="-1520" width="190" height="140" as="geometry" />
        </mxCell>
        <mxCell id="Cpst_2vj0uZUmUhsvRhu-13" value="" style="endArrow=block;dashed=1;endFill=0;endSize=12;html=1;rounded=0;exitX=0.5;exitY=0;exitDx=0;exitDy=0;entryX=0.5;entryY=1;entryDx=0;entryDy=0;" parent="1" source="Cpst_2vj0uZUmUhsvRhu-12" target="Cpst_2vj0uZUmUhsvRhu-11" edge="1">
          <mxGeometry width="160" relative="1" as="geometry">
            <mxPoint x="430" y="-1500" as="sourcePoint" />
            <mxPoint x="590" y="-1500" as="targetPoint" />
          </mxGeometry>
        </mxCell>
        <mxCell id="Cpst_2vj0uZUmUhsvRhu-14" value="&lt;p style=&quot;margin:0px;margin-top:4px;text-align:center;&quot;&gt;&lt;i&gt;&amp;lt;&amp;lt;Interface&amp;gt;&amp;gt;&lt;/i&gt;&lt;br&gt;&lt;b&gt;Repository&amp;lt;T&amp;gt;&lt;/b&gt;&lt;/p&gt;&lt;hr size=&quot;1&quot; style=&quot;border-style:solid;&quot;&gt;&lt;p style=&quot;margin: 4px 0px 0px;&quot;&gt;&lt;span style=&quot;background-color: initial;&quot;&gt;&lt;br&gt;&lt;/span&gt;&lt;/p&gt;&lt;hr style=&quot;border-style: solid;&quot; size=&quot;1&quot;&gt;&lt;p style=&quot;margin: 0px 0px 0px 4px;&quot;&gt;&lt;span style=&quot;background-color: initial;&quot;&gt;+ add(item: T): T&lt;/span&gt;&lt;br&gt;&lt;/p&gt;&lt;p style=&quot;margin: 0px 0px 0px 4px;&quot;&gt;+ get(id: integer): T&lt;/p&gt;" style="verticalAlign=top;align=left;overflow=fill;html=1;whiteSpace=wrap;" parent="1" vertex="1">
          <mxGeometry x="20" y="-1870" width="190" height="140" as="geometry" />
        </mxCell>
        <mxCell id="Cpst_2vj0uZUmUhsvRhu-16" value="&lt;p style=&quot;margin:0px;margin-top:4px;text-align:center;&quot;&gt;&lt;b&gt;AccessorsRepository&amp;lt;IAccessor&amp;gt;&lt;/b&gt;&lt;/p&gt;&lt;hr size=&quot;1&quot; style=&quot;border-style:solid;&quot;&gt;&lt;p style=&quot;margin: 0px 0px 0px 4px;&quot;&gt;- database: IDatabase&lt;/p&gt;&lt;hr style=&quot;border-style: solid;&quot; size=&quot;1&quot;&gt;&lt;p style=&quot;margin: 0px 0px 0px 4px;&quot;&gt;+ add(item: IAccessor): IAccessor&lt;/p&gt;&lt;p style=&quot;margin: 0px 0px 0px 4px;&quot;&gt;+ get(id: integer): IAccessor&lt;/p&gt;" style="verticalAlign=top;align=left;overflow=fill;html=1;whiteSpace=wrap;" parent="1" vertex="1">
          <mxGeometry x="-330" y="-1590" width="205" height="90" as="geometry" />
        </mxCell>
        <mxCell id="Cpst_2vj0uZUmUhsvRhu-17" value="&lt;p style=&quot;margin:0px;margin-top:4px;text-align:center;&quot;&gt;&lt;b&gt;CarsRepository&amp;lt;ICar&amp;gt;&lt;/b&gt;&lt;/p&gt;&lt;hr size=&quot;1&quot; style=&quot;border-style:solid;&quot;&gt;&lt;p style=&quot;margin:0px;margin-left:4px;&quot;&gt;- database: IDatabase&lt;/p&gt;&lt;hr size=&quot;1&quot; style=&quot;border-style:solid;&quot;&gt;&lt;p style=&quot;margin:0px;margin-left:4px;&quot;&gt;+ add(item: ICar): ICar&lt;/p&gt;&lt;p style=&quot;margin:0px;margin-left:4px;&quot;&gt;+ get(id: integer): ICar&lt;/p&gt;" style="verticalAlign=top;align=left;overflow=fill;html=1;whiteSpace=wrap;" parent="1" vertex="1">
          <mxGeometry x="-590" y="-1590" width="210" height="90" as="geometry" />
        </mxCell>
        <mxCell id="Cpst_2vj0uZUmUhsvRhu-18" value="&lt;p style=&quot;margin:0px;margin-top:4px;text-align:center;&quot;&gt;&lt;b&gt;BodiesRepository&amp;lt;IBody&amp;gt;&lt;/b&gt;&lt;/p&gt;&lt;hr size=&quot;1&quot; style=&quot;border-style:solid;&quot;&gt;&lt;p style=&quot;margin: 0px 0px 0px 4px;&quot;&gt;- database: IDatabase&lt;/p&gt;&lt;hr style=&quot;border-style: solid;&quot; size=&quot;1&quot;&gt;&lt;p style=&quot;margin: 0px 0px 0px 4px;&quot;&gt;+ add(item: IBody): IBody&lt;/p&gt;&lt;p style=&quot;margin: 0px 0px 0px 4px;&quot;&gt;+ get(id: integer): IBody&lt;/p&gt;" style="verticalAlign=top;align=left;overflow=fill;html=1;whiteSpace=wrap;" parent="1" vertex="1">
          <mxGeometry x="-80" y="-1590" width="170" height="130" as="geometry" />
        </mxCell>
        <mxCell id="Cpst_2vj0uZUmUhsvRhu-19" value="&lt;p style=&quot;margin:0px;margin-top:4px;text-align:center;&quot;&gt;&lt;b&gt;EnginesRepository&amp;lt;IEngine&amp;gt;&lt;/b&gt;&lt;/p&gt;&lt;hr size=&quot;1&quot; style=&quot;border-style:solid;&quot;&gt;&lt;p style=&quot;margin: 0px 0px 0px 4px;&quot;&gt;&amp;nbsp;- database: IDatabase&lt;/p&gt;&lt;hr style=&quot;border-style: solid;&quot; size=&quot;1&quot;&gt;&lt;p style=&quot;margin: 0px 0px 0px 4px;&quot;&gt;+ add(item: IEngine): IEngine&lt;/p&gt;&lt;p style=&quot;margin: 0px 0px 0px 4px;&quot;&gt;+ get(id: integer): IEngine&lt;/p&gt;" style="verticalAlign=top;align=left;overflow=fill;html=1;whiteSpace=wrap;" parent="1" vertex="1">
          <mxGeometry x="125" y="-1590" width="175" height="90" as="geometry" />
        </mxCell>
        <mxCell id="Cpst_2vj0uZUmUhsvRhu-20" value="" style="endArrow=block;dashed=1;endFill=0;endSize=12;html=1;rounded=0;exitX=0.5;exitY=0;exitDx=0;exitDy=0;entryX=0.5;entryY=1;entryDx=0;entryDy=0;" parent="1" source="Cpst_2vj0uZUmUhsvRhu-19" target="Cpst_2vj0uZUmUhsvRhu-14" edge="1">
          <mxGeometry width="160" relative="1" as="geometry">
            <mxPoint x="-130" y="-1560" as="sourcePoint" />
            <mxPoint x="30" y="-1560" as="targetPoint" />
          </mxGeometry>
        </mxCell>
        <mxCell id="Cpst_2vj0uZUmUhsvRhu-21" value="" style="endArrow=block;dashed=1;endFill=0;endSize=12;html=1;rounded=0;exitX=0.5;exitY=0;exitDx=0;exitDy=0;entryX=0.5;entryY=1;entryDx=0;entryDy=0;" parent="1" source="Cpst_2vj0uZUmUhsvRhu-17" target="Cpst_2vj0uZUmUhsvRhu-14" edge="1">
          <mxGeometry width="160" relative="1" as="geometry">
            <mxPoint x="-403.5" y="-1590" as="sourcePoint" />
            <mxPoint x="-493.5" y="-1730" as="targetPoint" />
          </mxGeometry>
        </mxCell>
        <mxCell id="Cpst_2vj0uZUmUhsvRhu-22" value="" style="endArrow=block;dashed=1;endFill=0;endSize=12;html=1;rounded=0;exitX=0.5;exitY=0;exitDx=0;exitDy=0;entryX=0.5;entryY=1;entryDx=0;entryDy=0;" parent="1" source="Cpst_2vj0uZUmUhsvRhu-16" target="Cpst_2vj0uZUmUhsvRhu-14" edge="1">
          <mxGeometry width="160" relative="1" as="geometry">
            <mxPoint x="-160" y="-1570" as="sourcePoint" />
            <mxPoint x="-250" y="-1710" as="targetPoint" />
          </mxGeometry>
        </mxCell>
        <mxCell id="Cpst_2vj0uZUmUhsvRhu-23" value="" style="endArrow=block;dashed=1;endFill=0;endSize=12;html=1;rounded=0;exitX=0.5;exitY=0;exitDx=0;exitDy=0;entryX=0.5;entryY=1;entryDx=0;entryDy=0;" parent="1" source="Cpst_2vj0uZUmUhsvRhu-18" target="Cpst_2vj0uZUmUhsvRhu-14" edge="1">
          <mxGeometry width="160" relative="1" as="geometry">
            <mxPoint x="20" y="-1590" as="sourcePoint" />
            <mxPoint x="-70" y="-1730" as="targetPoint" />
          </mxGeometry>
        </mxCell>
        <mxCell id="Cpst_2vj0uZUmUhsvRhu-24" value="Use" style="endArrow=open;endSize=12;dashed=1;html=1;rounded=0;exitX=1;exitY=0.5;exitDx=0;exitDy=0;entryX=0;entryY=0.5;entryDx=0;entryDy=0;" parent="1" source="Cpst_2vj0uZUmUhsvRhu-19" target="Cpst_2vj0uZUmUhsvRhu-11" edge="1">
          <mxGeometry width="160" relative="1" as="geometry">
            <mxPoint x="10" y="-1580" as="sourcePoint" />
            <mxPoint x="170" y="-1580" as="targetPoint" />
          </mxGeometry>
        </mxCell>
        <mxCell id="Cpst_2vj0uZUmUhsvRhu-26" value="&lt;p style=&quot;margin:0px;margin-top:4px;text-align:center;&quot;&gt;&lt;i&gt;&amp;lt;&amp;lt;Interface&amp;gt;&amp;gt;&lt;/i&gt;&lt;br&gt;&lt;b&gt;IMediator&lt;/b&gt;&lt;/p&gt;&lt;hr size=&quot;1&quot; style=&quot;border-style:solid;&quot;&gt;&lt;p style=&quot;margin:0px;margin-left:4px;&quot;&gt;+ field1: Type&lt;br&gt;+ field2: Type&lt;/p&gt;&lt;hr size=&quot;1&quot; style=&quot;border-style:solid;&quot;&gt;&lt;p style=&quot;margin:0px;margin-left:4px;&quot;&gt;+ method1(Type): Type&lt;br&gt;+ method2(Type, Type): Type&lt;/p&gt;" style="verticalAlign=top;align=left;overflow=fill;html=1;whiteSpace=wrap;" parent="1" vertex="1">
          <mxGeometry x="-1170" y="-1430" width="190" height="140" as="geometry" />
        </mxCell>
        <mxCell id="Cpst_2vj0uZUmUhsvRhu-27" value="&lt;p style=&quot;margin:0px;margin-top:4px;text-align:center;&quot;&gt;&lt;i&gt;&amp;lt;&amp;lt;Interface&amp;gt;&amp;gt;&lt;/i&gt;&lt;br&gt;&lt;b&gt;IColleague&lt;/b&gt;&lt;/p&gt;&lt;hr size=&quot;1&quot; style=&quot;border-style:solid;&quot;&gt;&lt;p style=&quot;margin:0px;margin-left:4px;&quot;&gt;&lt;br&gt;&lt;/p&gt;&lt;hr size=&quot;1&quot; style=&quot;border-style:solid;&quot;&gt;&lt;p style=&quot;margin:0px;margin-left:4px;&quot;&gt;&lt;br&gt;&lt;/p&gt;" style="verticalAlign=top;align=left;overflow=fill;html=1;whiteSpace=wrap;" parent="1" vertex="1">
          <mxGeometry x="-890" y="-1420" width="190" height="140" as="geometry" />
        </mxCell>
        <mxCell id="Cpst_2vj0uZUmUhsvRhu-29" value="" style="endArrow=block;dashed=1;endFill=0;endSize=12;html=1;rounded=0;entryX=0.5;entryY=1;entryDx=0;entryDy=0;exitX=0.5;exitY=0;exitDx=0;exitDy=0;" parent="1" source="RlL2vK3WvNa1BWt1NXNE-22" target="Cpst_2vj0uZUmUhsvRhu-26" edge="1">
          <mxGeometry width="160" relative="1" as="geometry">
            <mxPoint x="-970" y="-1030" as="sourcePoint" />
            <mxPoint x="-810" y="-1160" as="targetPoint" />
          </mxGeometry>
        </mxCell>
        <mxCell id="cKuI0ri_H7yRxGVmi5EV-2" value="Use" style="endArrow=open;endSize=12;dashed=1;html=1;rounded=0;exitX=0.5;exitY=1;exitDx=0;exitDy=0;" edge="1" parent="1" source="Cpst_2vj0uZUmUhsvRhu-17">
          <mxGeometry width="160" relative="1" as="geometry">
            <mxPoint x="-510" y="-1220" as="sourcePoint" />
            <mxPoint x="-540" y="-420" as="targetPoint" />
          </mxGeometry>
        </mxCell>
        <mxCell id="cKuI0ri_H7yRxGVmi5EV-3" value="Use" style="endArrow=open;endSize=12;dashed=1;html=1;rounded=0;exitX=0.5;exitY=1;exitDx=0;exitDy=0;entryX=0.25;entryY=0;entryDx=0;entryDy=0;" edge="1" parent="1" source="Cpst_2vj0uZUmUhsvRhu-16" target="KG3h8wtog52oOwl-IjPc-16">
          <mxGeometry width="160" relative="1" as="geometry">
            <mxPoint x="-530" y="-1160" as="sourcePoint" />
            <mxPoint x="-370" y="-1160" as="targetPoint" />
          </mxGeometry>
        </mxCell>
        <mxCell id="cKuI0ri_H7yRxGVmi5EV-4" value="Use" style="endArrow=open;endSize=12;dashed=1;html=1;rounded=0;exitX=0.5;exitY=1;exitDx=0;exitDy=0;entryX=0.5;entryY=0;entryDx=0;entryDy=0;" edge="1" parent="1" source="Cpst_2vj0uZUmUhsvRhu-18" target="KG3h8wtog52oOwl-IjPc-14">
          <mxGeometry width="160" relative="1" as="geometry">
            <mxPoint x="-530" y="-890" as="sourcePoint" />
            <mxPoint x="-370" y="-890" as="targetPoint" />
          </mxGeometry>
        </mxCell>
        <mxCell id="cKuI0ri_H7yRxGVmi5EV-5" value="Use" style="endArrow=open;endSize=12;dashed=1;html=1;rounded=0;exitX=0.5;exitY=1;exitDx=0;exitDy=0;entryX=0.5;entryY=0;entryDx=0;entryDy=0;" edge="1" parent="1" source="Cpst_2vj0uZUmUhsvRhu-19" target="KG3h8wtog52oOwl-IjPc-11">
          <mxGeometry width="160" relative="1" as="geometry">
            <mxPoint x="-270" y="-1290" as="sourcePoint" />
            <mxPoint x="140" y="-780" as="targetPoint" />
          </mxGeometry>
        </mxCell>
      </root>
    </mxGraphModel>
  </diagram>
  <diagram id="W5YGCZTf9DxhX1ktBOMV" name="Page-2">
    <mxGraphModel dx="1048" dy="586" grid="1" gridSize="10" guides="1" tooltips="1" connect="1" arrows="1" fold="1" page="1" pageScale="1" pageWidth="850" pageHeight="1100" math="0" shadow="0">
      <root>
        <mxCell id="0" />
        <mxCell id="1" parent="0" />
        <mxCell id="h4v-5-mxrAWUq1vd_zpp-1" value="&lt;div&gt;log_cars:&lt;/div&gt;&lt;div&gt;&lt;span style=&quot;white-space: pre;&quot;&gt;&#x9;&lt;/span&gt;carID&lt;/div&gt;&lt;div&gt;&lt;span style=&quot;white-space: pre;&quot;&gt;&#x9;&lt;/span&gt;datetime_event&lt;/div&gt;&lt;div&gt;&lt;span style=&quot;white-space: pre;&quot;&gt;&#x9;&lt;/span&gt;dealer_id&lt;br&gt;&lt;/div&gt;" style="rounded=0;whiteSpace=wrap;html=1;align=left;" parent="1" vertex="1">
          <mxGeometry x="560" y="80" width="120" height="60" as="geometry" />
        </mxCell>
        <mxCell id="h4v-5-mxrAWUq1vd_zpp-2" value="&lt;div&gt;cars:&lt;/div&gt;&lt;div&gt;&lt;span style=&quot;white-space: pre;&quot;&gt;&#x9;&lt;/span&gt;carID&lt;/div&gt;&lt;div&gt;&lt;span style=&quot;white-space: pre;&quot;&gt;&#x9;engineID&lt;/span&gt;&lt;/div&gt;&lt;div&gt;&lt;span style=&quot;white-space: pre;&quot;&gt;&#x9;&lt;/span&gt;BodyID&lt;/div&gt;&lt;div&gt;&lt;span style=&quot;white-space: pre;&quot;&gt;&#x9;&lt;/span&gt;accessoriesID&lt;br&gt;&lt;/div&gt;" style="rounded=0;whiteSpace=wrap;html=1;align=left;" parent="1" vertex="1">
          <mxGeometry x="285" y="80" width="150" height="80" as="geometry" />
        </mxCell>
        <mxCell id="h4v-5-mxrAWUq1vd_zpp-3" value="dealers:&lt;div&gt;&lt;span style=&quot;white-space: pre;&quot;&gt;&#x9;&lt;/span&gt;dealerID&lt;/div&gt;&lt;div&gt;&lt;span style=&quot;white-space: pre;&quot;&gt;&#x9;&lt;/span&gt;dealerName&lt;/div&gt;" style="rounded=0;whiteSpace=wrap;html=1;align=left;" parent="1" vertex="1">
          <mxGeometry x="40" y="80" width="120" height="60" as="geometry" />
        </mxCell>
        <mxCell id="Sns7s6V_vG8bau-C6mGo-1" value="&lt;b&gt;&lt;u&gt;&lt;font color=&quot;#ff0000&quot;&gt;SQLite база даних&lt;/font&gt;&lt;/u&gt;&lt;/b&gt;" style="rounded=0;whiteSpace=wrap;html=1;" parent="1" vertex="1">
          <mxGeometry x="40" y="20" width="640" height="40" as="geometry" />
        </mxCell>
        <mxCell id="e1zWZYCcCFZfewruitWo-1" value="&lt;div&gt;&lt;br&gt;&lt;/div&gt;&lt;div&gt;&lt;div align=&quot;center&quot;&gt;&lt;u&gt;&lt;b&gt;&lt;font color=&quot;#ff0000&quot;&gt;ВХІДНІ ДАНІ&lt;/font&gt;&lt;/b&gt;&lt;/u&gt;&lt;br&gt;&lt;/div&gt;&lt;br&gt;&lt;/div&gt;&lt;div&gt;N - частота постачання&lt;/div&gt;M - частота закупівлі&lt;br&gt;&lt;div&gt;&amp;nbsp;- кількість складів для деталей&lt;/div&gt;&lt;div&gt;&amp;nbsp;- максимальна ємність кожного складу для деталей &lt;br&gt;&lt;/div&gt;&lt;div&gt;&lt;div&gt;&amp;nbsp;- час очікування на звільнення місця на складі&lt;br&gt;&lt;/div&gt;&amp;nbsp;- кількість складів для виробленх авто&lt;/div&gt;&lt;div&gt;&amp;nbsp;- максимальна ємність складу для вироблених авто&lt;br&gt;&lt;/div&gt;&lt;div&gt;&amp;nbsp;- час очікування на звільнення місця на складі вироблених авто &lt;br&gt;&lt;/div&gt;&lt;div&gt;&amp;nbsp;- кількість постачальників&lt;/div&gt;&lt;div&gt;&amp;nbsp;- кількість дилелів/покіпців&lt;/div&gt;&lt;div&gt;&amp;nbsp;- кількість виробників&lt;br&gt;&lt;/div&gt;" style="shape=document;whiteSpace=wrap;html=1;boundedLbl=1;align=left;" parent="1" vertex="1">
          <mxGeometry x="200" y="340" width="380" height="261" as="geometry" />
        </mxCell>
      </root>
    </mxGraphModel>
  </diagram>
</mxfile>
